<svg id="Layer_1" data-name="Layer 1" xmlns="http://www.w3.org/2000/svg" viewBox="0 0 110 110"><path d="M60.07,46.3c-.53.68-.52.75,0,1.46a29.47,29.47,0,0,1,2,2.6,32.46,32.46,0,0,1,1.64,3.41,1.53,1.53,0,0,1,.06.61q0,12.42,0,24.83a3.49,3.49,0,0,1-.3,1.17,12.58,12.58,0,0,1-2.26,4,8,8,0,0,1-5.77,2.88c-4.2.17-7-2.31-8.78-6.72a5.11,5.11,0,0,1-.35-2c0-7.69,0-15.39,0-23.08a7.09,7.09,0,0,1,.86-3.61c.6-1.06,1.3-2,2-3,.33-.5.71-.95,1.07-1.43a.65.65,0,0,0,0-.86c-.78-1-1.55-2-2.34-3-.68-.85-1.39-1.64-2.06-2.5a1.52,1.52,0,0,1-.29-.84c0-5.63,0-11.27,0-16.91a4.22,4.22,0,0,1,0-.49l.14-.08,9.12,10.82c0-3.53.08-7,.12-10.49h.23c.27,3.46.09,6.94.2,10.41l.16.11,9-10.8.13.06c0,.22,0,.43,0,.65q0,8.28,0,16.57a1.68,1.68,0,0,1-.43,1.18C62.77,42.91,61.41,44.59,60.07,46.3Z"/></svg>