<svg id="Layer_1" data-name="Layer 1" xmlns="http://www.w3.org/2000/svg" viewBox="0 0 1080 1080"><defs><style>.cls-1{font-size:43.24px;font-family:Poppins-Regular, Poppins;}</style></defs><text class="cls-1" transform="translate(278.62 680.61)">MARKETING</text><path d="M374.46,385.37V623.29H309.91l-.7-.73-98.35-102.3q0,39.75,0,79.52a13.81,13.81,0,0,1-1.18,4.63c-2.26,5.91-5,11.45-9,16-6.47,7.25-14.19,11.12-23,11.48-16.75.68-27.93-9.22-35-26.77a20.13,20.13,0,0,1-1.39-7.78c.05-30.67.13-61.33-.06-92a28.23,28.23,0,0,1,3.44-14.41c2.37-4.21,5.15-8.1,7.83-12.07,1.34-2,2.85-3.79,4.26-5.71a2.56,2.56,0,0,0-.07-3.4c-3.12-4-6.16-8.13-9.32-12.09-2.69-3.38-5.55-6.55-8.21-10a5.9,5.9,0,0,1-1.15-3.34q-.1-33.7,0-67.41c0-.65.1-1.29.15-1.94l.56-.33L175,417.76c.15-14.07.31-27.94.47-41.81h.9c1.06,13.79.35,27.67.8,41.49l.64.46,35.77-43.08.48.27c0,.86.11,1.71.11,2.57q0,25.95,0,51.91l95,98.81v-143Z"/><path d="M391.79,559.73V439.41h64.58V539c0,20,10.54,30.93,26.17,30.93,15.3,0,26.86-10.88,26.86-30.93V439.41H574V623.29H509.4V598.14c-11.9,15.29-28.9,29.23-55.07,29.23C415.25,627.37,391.79,601.54,391.79,559.73Z"/><path d="M712.64,513.16l63.9-73.75H703.47l-50,61.52V375.17H588.92V623.29H653.5V580.12l16.66-19.37,37.05,62.54h71Z"/><path d="M942.07,535.94c0-54.05-29.23-100.61-92.79-100.61-54.38,0-92.79,42.48-92.79,96.19v.68c0,57.1,40.79,95.51,98.57,95.51,36.71,0,62.2-15,79.87-37.39l-35.69-29.57c-13.25,12.91-25.49,18.69-40.78,18.69-20.06,0-34.67-10.19-39.77-30.25h123C942.07,544.77,942.07,540,942.07,535.94Zm-87.4-46.29a7.17,7.17,0,0,1,5.15,2.13,6.68,6.68,0,0,1,1.23,1.68,7.65,7.65,0,0,1,.85,3.57,7.25,7.25,0,0,1-.88,3.48,7.26,7.26,0,0,1-6.51,3.74,7.3,7.3,0,0,1,.16-14.6Zm-37,7.17c-.9-4.89.91-11.37,4.24-17.33,3.48-6.24,8.62-11.9,14.06-14.55,2.81,4.86,5.59,9.69,8.39,14.55.69,1.18,1.38,2.38,2.06,3.57l2.4,4.15a11.84,11.84,0,0,0-5.6,9.61Zm18.46,32.23c.34-.58.67-1.16,1-1.74q3.21-5.56,6.41-11.09c1.8-3.14,3.62-6.27,5.44-9.43a11.47,11.47,0,0,0,11.13,0l5.46,9.46q3.21,5.55,6.4,11.09l1,1.69C863.25,535.42,847.25,536,836.17,529.05Zm29.76-32.28a11.91,11.91,0,0,0-5.61-9.56l1.19-2,3.27-5.67,2.11-3.65q1.58-2.74,3.18-5.5l3.21-5.56a39.29,39.29,0,0,1,14.07,14.71,39.9,39.9,0,0,1,4.42,17.28Z"/><polygon points="309.91 623.29 309.21 623.29 309.21 622.56 309.91 623.29"/></svg>